<?xml version="1.0" standalone="no"?>
<!DOCTYPE svg PUBLIC "-//W3C//DTD SVG 1.1//EN" "http://www.w3.org/Graphics/SVG/1.1/DTD/svg11.dtd" >
<svg xmlns="http://www.w3.org/2000/svg">
<metadata>Generated by IcoMoon</metadata>
<defs>
<font id="icon-fonts" horiz-adv-x="1024">
<font-face units-per-em="1024" ascent="960" descent="-64" />
<missing-glyph horiz-adv-x="1024" />
<glyph unicode="&#x20;" horiz-adv-x="512" d="" />
<glyph unicode="&#xe611;" glyph-name="right" d="M284.445-5.583v910.258l455.109-455.137-455.109-455.122z" />
<glyph unicode="&#xe612;" glyph-name="down" d="M825.806 796.355v-660.645h-660.645z" />
<glyph unicode="&#xe631;" glyph-name="char" d="M174.4 671.456l-110.88-414.56h79.328l18.688 62.592h92.224l18.272-62.592h80.576l-110.912 414.56h-67.296zM179.36 406.976l33.632 150.432h-10.304l32.8-150.432h-56.128zM588.16 485.376c23.264 16.128 39.008 46.080 39.008 82.976 0 85.856-56.032 104.288-107.104 103.136h-135.52v-414.56h139.232c63.552 0 115.424 29.984 115.424 127.904 0.032 46.656-19.52 87.84-51.040 100.544zM463.392 588.512h55.008c16.192 0 31.552-9.792 31.552-39.744 0-29.376-18.24-37.6-31.552-37.6h-55.008v77.344zM520.48 342.752h-57.088v94.496h57.088c23.264 0 41.504-12.096 41.504-48.416 0-33.984-17.024-46.080-41.504-46.080zM818.144 348.416c-49.856 0-68.928 48.352-68.928 109.408 0 61.088 19.104 120.576 68.928 120.576 32.416 0 60.416-25.088 64.576-66.56h77.248c-2.080 99.104-76.224 158.752-140.16 158.752-89.696 0-147.84-93.472-147.84-212.736s58.144-201.6 147.84-201.6c75.168 0 136 54.272 140.16 160.288h-77.248c-2.912-47.296-28.48-68.128-64.576-68.128z" />
<glyph unicode="&#xe632;" glyph-name="number" d="M63.776 575.936v-64.064h88.256v-256.16h103.712v415.936h-81.248c-4.032-63.36-54.24-96.864-110.72-95.712zM489.088 392.832c58.784 36.32 114.080 74.688 114.080 151.872 0 85.856-70.88 127.328-150.4 127.328-100.256 0-170.336-60.384-164.608-160.064h94.816c0.576 43.776 18.496 74.208 70.368 74.208 31.104 0 51.84-19.040 51.84-50.112 0-27.104-21.92-46.688-52.448-66.848-31.104-19.584-70.272-49.92-104.832-79.84-39.744-34.016-59.072-82.4-59.616-133.696h320.512v82.976h-192.32c25.92 25.376 42.080 35.2 72.608 54.176zM899.616 481.344v1.152c36.864 6.336 55.872 43.232 55.872 78.336 0 81.856-80.096 111.232-149.824 111.232-85.856 0-150.944-46.688-153.248-136.576h91.616c-0.608 36.32 22.464 57.024 62.208 57.024 31.68 0 57.632-14.368 57.632-40.32 0-34.56-41.088-40.48-69.92-40.48-8.64-0.576-17.28 1.152-25.952 0.576v-64.768c8.672 0.576 17.312 1.152 25.952 1.152 39.2 0 76.224-19.936 76.224-64.32 0-35.168-31.68-49.568-65.088-49.568-49.568 0-73.184 23.616-72.032 71.456l-93.184-1.6c-5.792-103.168 71.872-149.376 165.792-149.376 79.52 0 162.496 38.016 162.496 129.056 0.032 47.296-22.432 84.928-68.544 97.024z" />
<glyph unicode="&#xe640;" glyph-name="alert2" d="M1012.48 30.144l-444.032 832c-11.072 20.8-32.768 33.856-56.384 33.856h-0.064c-23.616 0-45.248-12.992-56.384-33.792l-446.016-832c-10.624-19.904-10.048-43.84 1.472-63.104 11.584-19.2 32.448-31.104 54.912-31.104h889.984c22.464 0 43.328 11.776 54.912 31.104 11.584 19.264 12.16 43.2 1.6 63.040zM512 64c-35.328 0-64 28.672-64 64s28.672 64 64 64c35.264 0 64-28.672 64-64s-28.736-64-64-64zM576 318.976c0-35.392-28.736-64-64-64-35.328 0-64 28.608-64 64v256c0 35.328 28.672 64 64 64 35.264 0 64-28.672 64-64v-256z" />
<glyph unicode="&#xe665;" glyph-name="chart-curve" d="M190.816 275.808l-125.632 24.384c15.168 78.112 105.984 375.968 273.376 406.080 54.752 9.792 136.224-5.12 213.856-132.32 41.92-66.944 82.368-103.328 112.16-99.040 62.88 9.12 139.008 167.424 169.792 278.176l123.328-34.24c-15.968-57.568-104.352-345.888-274.72-370.624-85.408-12.288-165.888 40.896-239.392 158.4-30.56 50.080-60.928 77.216-82.272 73.664-61.088-10.976-146.208-179.424-170.496-304.48z" />
<glyph unicode="&#xe666;" glyph-name="chart-curve-area" d="M956.832 730.944c0.256 0.8 0.608 2.048 0.8 2.816l-123.296 34.24c-30.784-110.752-106.912-269.056-169.792-278.176-29.664-4.16-70.24 32.096-112.16 99.040-77.632 127.2-159.040 142.080-213.856 132.32-140.64-25.312-227.008-239.136-260.064-353.312-9.28-17.024-14.464-27.648-14.464-27.648v-197.344h896v592l-3.168-3.936z" />
<glyph unicode="&#xe694;" glyph-name="chart-pie" d="M509.76 891.488c-245.792 0-445.76-199.936-445.76-445.728s199.968-445.76 445.76-445.76c245.824 0 445.76 199.936 445.76 445.76s-199.968 445.728-445.76 445.728zM509.76 81.024c-201.088 0-364.672 163.616-364.672 364.704 0 91.168 33.824 174.464 89.312 238.432l245.6-300.16h388.768c-29.44-171.712-178.976-302.976-359.008-302.976z" />
<glyph unicode="&#xe900;" glyph-name="menu" d="M64 128h896v128h-896v-128zM64 384h896v128h-896v-128zM64 768v-128h896v128h-896z" />
<glyph unicode="&#xe901;" glyph-name="close" d="M960 805.696l-90.24 90.272-357.76-357.696-357.76 357.696-90.24-90.272 357.76-357.664-357.76-357.76 90.24-90.24 357.76 357.664 357.76-357.664 90.24 90.24-357.76 357.76 357.76 357.664z" />
<glyph unicode="&#xe902;" glyph-name="add" d="M960 384h-384v-384h-128v384h-384v128h384v384h128v-384h384v-128z" />
<glyph unicode="&#xe903;" glyph-name="alert" d="M427.072 84.928c0-46.944 38.048-84.928 84.992-84.928 46.912 0 84.864 38.016 84.864 84.928h-169.856zM805.504 263.68v248.352c0 138.656-95.904 254.688-225.632 285.408v30.752c0 37.504-30.304 67.808-67.808 67.808-37.632 0-67.936-30.304-67.936-67.808v-30.752c-129.728-30.72-225.632-146.752-225.632-285.408v-248.352l-90.464-90.432v-45.216h767.936v45.216l-90.464 90.432z" />
<glyph unicode="&#xe904;" glyph-name="app" d="M64 896h256v-256h-256v256zM64 576h256v-256h-256v256zM64 256h256v-256h-256v256zM384 576h256v-256h-256v256zM384 256h256v-256h-256v256zM384 896h256v-256h-256v256zM704 896h256v-256h-256v256zM704 576h256v-256h-256v256zM704 256h256v-256h-256v256z" />
<glyph unicode="&#xe905;" glyph-name="ccheck" d="M860.448 896h-696.896c-55.232 0-99.552-44.8-99.552-99.552v-696.864c0-54.784 44.32-99.584 99.552-99.584h696.864c55.264 0 99.584 44.8 99.584 99.552v696.896c0 54.752-44.32 99.552-99.552 99.552zM412.448 199.136l-248.896 248.864 70.176 70.176 178.688-178.176 377.824 377.792 70.176-70.656-447.968-448z" />
<glyph unicode="&#xe906;" glyph-name="collapse" d="M512 740.672l-448-448 105.312-105.312 342.688 341.984 342.688-342.016 105.312 105.344-448 448z" />
<glyph unicode="&#xe907;" glyph-name="color" d="M860.544 103.136c54.72 0 99.52 42.016 99.52 93.28 0 62.016-99.52 163.232-99.52 163.232s-99.52-101.184-99.52-163.232c-0.032-51.296 44.768-93.28 99.52-93.28zM359.776 123.616c14.432-13.504 33.856-20.512 52.768-20.512 18.88 0 38.304 7.008 52.736 20.512l273.824 256.512c29.312 27.072 29.312 71.36 0 98.944l-445.056 416.928-70.144-65.792 118.464-110.976-256.384-240.192c-29.344-27.552-29.344-71.872 0-98.944l273.792-256.48zM412.576 639.392l238.4-223.392h-476.864l238.464 223.392zM64 64h896v-64h-896v64z" />
<glyph unicode="&#xe908;" glyph-name="ellipsis-v" d="M512 672c61.696 0 112 50.464 112 112s-50.304 112-112 112c-61.568 0-112-50.464-112-112s50.432-112 112-112zM512 560c-61.568 0-112-50.464-112-112s50.432-112 112-112c61.696 0 112 50.464 112 112s-50.304 112-112 112zM512 224c-61.568 0-112-50.464-112-112s50.432-112 112-112c61.696 0 112 50.464 112 112s-50.304 112-112 112z" />
<glyph unicode="&#xe909;" glyph-name="dashboard" d="M64 896h384v-384h-384v384zM576 896h384v-384h-384v384zM64 384h384v-384h-384v384zM576 384h384v-384h-384v384z" />
<glyph unicode="&#xe90a;" glyph-name="delete" d="M192 99.552c0-54.784 44.768-99.552 99.552-99.552h440.864c54.784 0 99.584 44.768 99.584 99.552v604.448h-640v-604.448zM860.448 846.208h-174.208l-49.792 49.792h-248.864l-49.792-49.792h-174.24v-99.552h696.864v99.552z" />
<glyph unicode="&#xe90b;" glyph-name="icon_right" d="M348.768 208.128l-212.448 212.448-72.32-71.84 284.768-284.736 611.232 611.264-71.84 71.744-539.392-538.88z" />
<glyph unicode="&#xe90c;" glyph-name="edit" d="M64 186.656v-186.656h186.656l550.4 550.464-186.624 186.656-550.432-550.464zM945.44 694.784c19.36 19.424 19.36 50.752 0 70.176l-116.512 116.448c-19.424 19.456-50.752 19.456-70.112 0l-91.072-91.040 186.624-186.656 91.072 91.072z" />
<glyph unicode="&#xe90d;" glyph-name="filter" d="M956.192 871.168c-7.296 16.512-19.712 24.832-37.536 24.832h-813.312c-17.824 0-30.24-8.32-37.536-24.832-7.168-17.376-4.224-32.256 8.864-44.512l313.376-313.76v-309.248c0-11.072 3.904-20.576 12-28.672l162.656-162.912c7.68-8 17.216-12.064 28.672-12.064 5.024 0 10.4 1.088 15.84 3.168 16.544 7.232 24.864 19.744 24.864 37.568v472.16l313.216 313.76c13.12 12.256 16.064 27.136 8.896 44.512z" />
<glyph unicode="&#xe90e;" glyph-name="explore" d="M512 497.28c-27.328 0-49.28-22.016-49.28-49.28s21.952-49.28 49.28-49.28c27.296 0 49.28 22.016 49.28 49.28s-21.984 49.28-49.28 49.28zM512 896c-247.328 0-448-200.672-448-448 0-247.264 200.672-448 448-448s448 200.736 448 448c0 247.328-200.672 448-448 448zM610.112 349.952l-366.88-170.72 170.656 366.912 366.912 170.656-170.688-366.848z" />
<glyph unicode="&#xe90f;" glyph-name="down2" d="M64 672h896l-448-448-448 448z" />
<glyph unicode="&#xe910;" glyph-name="fullscreen" d="M192 320h-128v-320h320v128h-192v192zM64 576h128v192h192v128h-320v-320zM832 128h-192v-128h320v320h-128v-192zM640 896v-128h192v-192h128v320h-320z" />
<glyph unicode="&#xe911;" glyph-name="fullscreen-exit" d="M64 192h192v-192h128v320h-320v-128zM256 704h-192v-128h320v320h-128v-192zM640 0h128v192h192v128h-320v-320zM768 704v192h-128v-320h320v128h-192z" />
<glyph unicode="&#xe912;" glyph-name="help" d="M512 896c-247.328 0-448-200.672-448-448s200.672-448 448-448c247.264 0 448 200.672 448 448s-200.736 448-448 448zM561.76 99.52h-99.488v99.584h99.488v-99.584zM664.832 485.312l-44.832-45.76c-35.808-36.416-58.24-66.24-58.24-140.864h-99.488v24.832c0 54.784 22.336 104.576 58.208 140.864l61.696 62.72c18.368 17.952 29.44 42.816 29.44 70.176 0 54.784-44.832 99.552-99.584 99.552s-99.584-44.768-99.584-99.552h-99.52c0 110.016 89.152 199.168 199.136 199.168s199.136-89.152 199.136-199.168c-0.064-43.712-17.952-83.52-46.368-111.968z" />
<glyph unicode="&#xe913;" glyph-name="home" d="M422.432 67.232v268.768h179.136v-268.768h224v358.368h134.432l-448 403.2-448-403.2h134.432v-358.368h224z" />
<glyph unicode="&#xe914;" glyph-name="indetermnt-check" d="M860.448 896h-696.896c-54.752 0-99.552-44.8-99.552-99.552v-696.864c0-54.784 44.8-99.584 99.552-99.584h696.864c54.784 0 99.584 44.8 99.584 99.552v696.896c0 54.752-44.8 99.552-99.552 99.552zM760.864 398.208h-497.76v99.552h497.76v-99.552z" />
<glyph unicode="&#xe915;" glyph-name="info" d="M512 896c-247.296 0-448-200.672-448-448s200.704-448 448-448c247.264 0 448 200.672 448 448s-200.736 448-448 448zM568 168h-112v336h112v-336zM568 616h-112v112h112v-112z" />
<glyph unicode="&#xe916;" glyph-name="widget" d="M527.776 371.2v-371.2h371.008v371.2h-371.008zM64 0h371.008v371.2h-371.008v-371.2zM64 835.232v-371.232h371.008v371.232h-371.008zM697.504 896l-262.496-262.144 262.496-262.656 262.496 262.656-262.496 262.144z" />
<glyph unicode="&#xe917;" glyph-name="signout" d="M427.552 258.688l70.208-70.208 248.864 248.864-248.864 248.864-70.208-70.208 128.48-128.896h-481.376v-99.488h481.376l-128.48-128.928zM871.072 885.344h-696.832c-55.296 0-99.584-44.768-99.584-99.584v-199.072h99.584v199.072h696.8v-696.8h-696.8v199.040h-99.584v-199.072c0-54.816 44.32-99.584 99.584-99.584h696.8c54.816 0 99.584 44.768 99.584 99.584v696.832c0.032 54.816-44.736 99.584-99.552 99.584z" />
<glyph unicode="&#xe918;" glyph-name="nav-left" d="M788.64 105.28l-341.952 342.72 341.952 342.72-105.28 105.28-448-448 448-448 105.28 105.28z" />
<glyph unicode="&#xe919;" glyph-name="nav-right" d="M235.328 105.28l342.016 342.72-342.016 342.72 105.312 105.28 448.032-448-448.032-448-105.312 105.28z" />
<glyph unicode="&#xe91a;" glyph-name="pause" d="M512 896c-247.296 0-448-200.704-448-448s200.704-448 448-448 448 200.704 448 448-200.704 448-448 448zM467.2 268.8h-89.6v358.4h89.6v-358.4zM646.4 268.8h-89.6v358.4h89.6v-358.4z" />
<glyph unicode="&#xe91b;" glyph-name="pin" d="M691.2 448v358.4h44.8v89.6h-448v-89.6h44.8v-358.4l-89.6-89.6v-89.6h232.96v-268.8h71.68v268.8h232.96v89.6l-89.6 89.6z" />
<glyph unicode="&#xe91c;" glyph-name="placeholder" d="M960 298.656h-81.44v-99.552h81.44v99.552zM960 497.792h-81.44v-99.552h81.44v99.552zM960 99.552h-81.44v-99.552c40.704 0 81.44 49.792 81.44 99.552zM634.176 896h-81.44v-99.552h81.44v99.552zM960 696.896h-81.44v-99.552h81.44v99.552zM878.56 896v-99.552h81.44c0 49.76-40.736 99.552-81.44 99.552zM145.44 0h325.824v298.656h-407.264v-199.104c0-54.784 36.64-99.552 81.44-99.552zM145.44 696.896h-81.44v-99.552h81.44v99.552zM634.176 99.552h-81.44v-99.552h81.44v99.552zM797.088 896h-81.472v-99.552h81.472v99.552zM797.088 99.552h-81.472v-99.552h81.472v99.552zM145.44 896c-40.704 0-81.44-49.792-81.44-99.552h81.44v99.552zM145.44 497.792h-81.44v-99.552h81.44v99.552zM471.264 896h-81.44v-99.552h81.44v99.552zM308.352 896h-81.44v-99.552h81.44v99.552z" />
<glyph unicode="&#xe91d;" glyph-name="play" d="M512 896c-247.296 0-448-200.704-448-448s200.704-448 448-448 448 200.704 448 448-200.704 448-448 448zM422.4 246.4v403.2l268.8-201.6-268.8-201.6z" />
<glyph unicode="&#xe91e;" glyph-name="rcheck" d="M512 672c-123.616 0-224-100.384-224-224s100.384-224 224-224 224 100.384 224 224-100.384 224-224 224zM512 896c-247.296 0-448-200.704-448-448s200.704-448 448-448 448 200.704 448 448-200.704 448-448 448zM512 89.6c-197.984 0-358.4 160.384-358.4 358.4s160.416 358.4 358.4 358.4 358.4-160.416 358.4-358.4-160.384-358.4-358.4-358.4z" />
<glyph unicode="&#xe91f;" glyph-name="refresh2" d="M828.16 764.448c-81.216 81.12-192.672 131.552-316.448 131.552-247.488 0-447.424-200.512-447.424-448s199.936-448 447.424-448c208.896 0 383.040 142.784 432.896 336h-116.48c-45.952-130.496-170.304-224-316.448-224-185.376 0-336 150.624-336 336s150.624 336 336 336c92.96 0 175.872-38.624 236.384-99.616l-180.384-180.384h392v392l-131.52-131.552z" />
<glyph unicode="&#xe920;" glyph-name="save" d="M760.896 896h-597.344c-55.264 0-99.552-44.768-99.552-99.552v-696.864c0-54.816 44.288-99.584 99.552-99.584h696.864c54.816 0 99.584 44.768 99.584 99.552v597.344l-199.104 199.104zM512 99.552c-82.656 0-149.344 66.688-149.344 149.344s66.688 149.344 149.344 149.344 149.344-66.688 149.344-149.344-66.688-149.344-149.344-149.344zM661.344 597.344h-497.792v199.104h497.76v-199.104z" />
<glyph unicode="&#xe921;" glyph-name="setting" d="M844.992 404.096c1.76 14.304 3.072 28.704 3.072 43.904 0 15.264-1.312 29.6-3.072 43.904l94.496 73.952c8.544 6.72 10.72 18.816 5.344 28.672l-89.568 155.008c-5.344 9.888-17.504 13.44-27.328 9.888l-111.552-44.768c-23.296 17.92-48.352 32.704-75.68 43.872l-17.056 118.72c-1.344 10.72-10.752 18.752-21.888 18.752h-179.264c-11.168 0-20.576-8.032-21.984-18.816l-16.96-118.72c-27.328-11.168-52.384-26.4-75.808-43.872l-111.456 44.768c-10.272 4-21.984 0-27.328-9.888l-89.6-154.976c-5.92-9.856-3.168-21.952 5.344-28.672l94.496-73.952c-1.824-14.272-3.136-29.056-3.136-43.872 0-14.752 1.312-29.6 3.168-43.904l-94.496-73.92c-8.544-6.72-10.72-18.816-5.344-28.64l89.568-155.072c5.344-9.856 17.504-13.44 27.328-9.856l111.456 44.768c23.392-17.888 48.448-32.672 75.808-43.904l16.96-118.72c1.408-10.72 10.816-18.752 21.984-18.752h179.264c11.168 0 20.576 8.032 21.888 18.816l17.056 118.72c27.328 11.232 52.384 26.464 75.68 43.904l111.552-44.768c10.272-4.032 21.984 0 27.328 9.856l89.568 155.072c5.344 9.824 3.168 21.92-5.344 28.64l-94.496 73.856zM512.064 291.232c-86.4 0-156.736 70.304-156.736 156.768s70.336 156.768 156.736 156.768c86.528 0 156.832-70.304 156.832-156.768s-70.304-156.768-156.832-156.768z" />
<glyph unicode="&#xe922;" glyph-name="cuncheck" d="M860.448 796.48v-696.96h-696.896v696.96h696.896zM860.448 896h-696.896c-54.752 0-99.552-44.832-99.552-99.52v-696.96c0-54.688 44.8-99.52 99.552-99.52h696.864c54.784 0 99.584 44.832 99.584 99.52v696.96c0 54.688-44.8 99.52-99.552 99.52z" />
<glyph unicode="&#xe923;" glyph-name="runcheck" d="M512 896c-247.296 0-448-200.704-448-448s200.704-448 448-448 448 200.704 448 448-200.704 448-448 448zM512 89.6c-197.984 0-358.4 160.384-358.4 358.4s160.416 358.4 358.4 358.4 358.4-160.416 358.4-358.4-160.384-358.4-358.4-358.4z" />
<glyph unicode="&#xe924;" glyph-name="unsaved" d="M960 448c0-247.424-200.576-448-448-448s-448 200.576-448 448c0 247.424 200.576 448 448 448s448-200.576 448-448z" />
<glyph unicode="&#xe925;" glyph-name="remove" d="M960 384h-896v128h896v-128z" />
<glyph unicode="&#xe926;" glyph-name="search-left" d="M730.176 306.656h-40.512l-14.304 13.792c50.176 58.432 80.448 134.272 80.448 216.704 0 183.904-149.12 332.992-332.992 332.992s-332.992-149.056-332.992-332.96c0-183.872 149.12-332.96 332.992-332.96 82.432 0 158.304 30.208 216.736 80.448l13.76-14.336v-40.48l204.512-204 76.384 76.352-204.032 204.448zM422.816 306.656c-127.552 0-230.496 102.944-230.496 230.496 0 127.584 102.944 230.528 230.496 230.528s230.496-102.944 230.496-230.528c0-127.552-102.944-230.496-230.496-230.496z" />
<glyph unicode="&#xe927;" glyph-name="search-right" d="M79.2 102.176l76.32-76.352 225.824 204v40.48l13.824 14.336c58.432-50.208 134.24-80.448 216.672-80.448 183.936 0 332.992 149.088 332.992 332.96 0 183.904-149.056 332.992-332.992 332.992-183.872 0-332.928-149.088-332.928-332.992 0-82.432 30.176-158.272 80.448-216.704l-14.368-13.792h-40.48l-225.312-204.48zM381.312 537.184c0 127.584 102.944 230.528 230.496 230.528 127.616 0 230.56-102.944 230.56-230.528 0-127.552-102.944-230.496-230.56-230.496-127.552-0.032-230.496 102.912-230.496 230.496z" />
<glyph unicode="&#xe928;" glyph-name="chart-bar" d="M64.064 415.072h191.712v-415.072h-191.712v415.072zM767.776 896h192.16v-896h-192.16v896zM383.776 640.288h256v-640.288h-256v640.288z" />
<glyph unicode="&#xe929;" glyph-name="color2" d="M512 896c-247.392 0-448-200.64-448-448s200.608-448 448-448c41.312 0 74.688 33.344 74.688 74.656 0 19.456-7.488 36.832-19.456 50.272-11.392 12.928-18.848 30.368-18.848 49.28 0 41.312 33.312 74.656 74.656 74.656h88.096c137.376 0 248.864 111.52 248.864 248.896 0 220.032-200.576 398.24-448 398.24zM238.208 448c-41.312 0-74.656 33.344-74.656 74.656 0 41.344 33.344 74.688 74.656 74.688 41.344 0 74.656-33.344 74.656-74.688 0.032-41.312-33.312-74.656-74.656-74.656zM387.552 647.136c-41.344 0-74.656 33.344-74.656 74.656s33.344 74.656 74.656 74.656c41.312 0 74.656-33.344 74.656-74.656s-33.344-74.656-74.656-74.656zM636.448 647.136c-41.312 0-74.656 33.344-74.656 74.656s33.344 74.656 74.656 74.656 74.688-33.344 74.688-74.656-33.376-74.656-74.688-74.656zM785.792 448c-41.344 0-74.656 33.344-74.656 74.656 0 41.344 33.312 74.688 74.656 74.688 41.312 0 74.656-33.344 74.656-74.688 0-41.312-33.344-74.656-74.656-74.656z" />
<glyph unicode="&#xe92a;" glyph-name="list" d="M148 532c-46.496 0-84-37.536-84-84s37.504-84 84-84 84 37.536 84 84-37.504 84-84 84zM148 852c-46.496 0-84-37.536-84-84s37.504-84 84-84 84 37.536 84 84-37.504 84-84 84zM148 212c-46.496 0-84-38.048-84-84s38.048-84 84-84 84 38.048 84 84-37.504 84-84 84zM320 192h640v-128h-640v128zM320 512h640v-128h-640v128zM320 832h640v-128h-640v128z" />
<glyph unicode="&#xe92b;" glyph-name="tooltip" d="M890.688 833.44c6.368 0 7.392-1.44 7.936-1.44h-1.28l-0.416-570.304c-0.608-1.12-4.992-5.696-11.584-5.696h-227.584l-145.76-160.704-145.76 160.704h-227.552c-6.432 0-10.112 2.912-10.656 2.912 0 0 0 0-0.032 0l-0.256 568.864c0.608 1.12 4.32 4.224 10.944 4.224h757.312zM885.344 896h-746.656c-41.248 0-74.688-29.952-74.688-66.912v-570.176c0-36.96 33.44-66.912 74.688-66.912h199.2l174.112-192 174.112 192h199.232c41.216 0 74.656 29.952 74.656 66.912v570.176c0 36.96-33.44 66.912-74.656 66.912v0z" />
<glyph unicode="&#xe92c;" glyph-name="open" d="M918.496 679.008c4.576 0 9.088-0.8 13.6-1.44v67.296c0 22.944-18.592 41.504-41.536 41.504h-408.192c-34.976 0-63.328 28.32-63.328 63.328v4.736c0 22.944-18.592 41.568-41.536 41.568h-244.096c-22.912 0-41.504-18.624-41.504-41.568v-176.864c4.512 0.64 9.024 1.44 13.632 1.44h812.96zM948.672 627.008c-7.84 8.32-18.752 12.992-30.176 12.992h-812.96c-11.456 0-22.336-4.672-30.208-12.992s-11.936-19.488-11.296-30.944l25.6-556.864c1.28-21.952 19.488-39.2 41.504-39.2h761.76c22.016 0 40.224 17.248 41.472 39.2l25.6 556.864c0.608 11.424-3.456 22.624-11.296 30.944z" />
<glyph unicode="&#xe92d;" glyph-name="saveas" d="M778.656 768h-511.968c-47.36 0-74.688-38.336-74.688-85.344v-597.312c0-47.008 27.328-85.344 74.688-85.344h597.312c47.008 0 96 38.336 96 85.344v511.968l-181.344 170.688zM288 672h416v-160h-416v160zM565.344 85.344c-70.848 0-128 57.152-128 127.968 0 70.88 57.152 128.032 128 128.032s128-57.152 128-128.032c0-70.816-57.152-127.968-128-127.968zM704 896h-586.656c-35.2 0-53.344-28.8-53.344-64v-704h64v704h576v64z" />
<glyph unicode="&#xe92e;" glyph-name="preview" d="M512 753.44c-203.616 0-377.536-126.624-448-305.44 70.464-178.816 244.384-305.44 448-305.44s377.536 126.624 448 305.44c-70.464 178.816-244.384 305.44-448 305.44zM512 244.384c-112.416 0-203.616 91.264-203.616 203.616s91.2 203.616 203.616 203.616 203.616-91.264 203.616-203.616-91.2-203.616-203.616-203.616zM512 570.176c-67.616 0-122.176-54.56-122.176-122.176s54.56-122.176 122.176-122.176 122.176 54.56 122.176 122.176-54.56 122.176-122.176 122.176z" />
<glyph unicode="&#xe92f;" glyph-name="signout-left" d="M852.416 896h-696.832c-55.264 0-91.584-56.672-91.584-111.488v-80.512h96v96h704v-704h-704v96h-96v-104.32c0-54.816 36.32-87.68 91.584-87.68h696.8c54.848 0 107.616 32.864 107.616 87.68v696.832c0 54.816-52.768 111.488-107.584 111.488zM289.184 657.344l-225.184-209.408 225.184-209.344 34.912 37.504-150.56 139.904h466.464v64h-466.336l150.432 139.84z" />
<glyph unicode="&#xe930;" glyph-name="user" d="M512 896c-247.296 0-448-200.704-448-448s200.704-448 448-448 448 200.704 448 448-200.704 448-448 448zM512 761.6c74.368 0 134.4-60.032 134.4-134.4s-60.032-134.4-134.4-134.4-134.4 60-134.4 134.368 60.032 134.432 134.4 134.432zM512 125.44c-112 0-211.008 57.344-268.8 144.256 1.312 89.152 179.232 137.984 268.8 137.984 89.152 0 267.488-48.8 268.8-137.984-57.792-86.912-156.8-144.256-268.8-144.256z" />
<glyph unicode="&#xe931;" glyph-name="data-model" d="M511.968 896c-219.936 0-398.208-89.088-398.208-199.104s178.272-199.136 398.208-199.136c220.032 0 398.272 89.088 398.272 199.136 0 110.016-178.24 199.104-398.272 199.104zM113.76 597.344v-149.344c0-110.016 178.272-199.104 398.208-199.104 220.032 0 398.272 89.088 398.272 199.104v149.344c0-110.016-178.24-199.136-398.272-199.136-219.936 0-398.208 89.12-398.208 199.136zM113.76 348.448v-149.344c0-110.016 178.272-199.104 398.208-199.104 220.032 0 398.272 89.088 398.272 199.104v149.344c0-110.016-178.24-199.104-398.272-199.104-219.936 0-398.208 89.088-398.208 199.104z" />
<glyph unicode="&#xe932;" glyph-name="backward" d="M937.472 825.504c6.304 6.24 11.616 8.48 16.032 6.496 4.32-2.016 6.496-7.36 6.496-16.032v-735.936c0-8.672-2.176-14.016-6.496-16.032-4.416-2.016-9.728 0.256-16.032 6.496l-354.976 355.040c-3.008 3.008-5.184 6.112-6.496 9.504v-355.008c0-8.672-2.176-14.016-6.464-16.032-4.384-2.016-9.696 0.256-16.032 6.496l-354.944 355.040c-3.072 3.008-5.184 6.112-6.592 9.504v-338.976c0-8.768-3.136-16.288-9.44-22.56-6.368-6.24-13.888-9.504-22.464-9.504h-64c-8.704 0-16.224 3.264-22.528 9.504-6.4 6.272-9.536 13.792-9.536 22.56v703.872c0 8.768 3.136 16.288 9.536 22.56 6.304 6.24 13.792 9.504 22.528 9.504h64c8.576 0 16.096-3.264 22.464-9.504 6.304-6.272 9.44-13.792 9.44-22.56v-338.976c1.408 3.744 3.52 6.88 6.592 9.504l354.944 355.040c6.336 6.24 11.648 8.48 16.032 6.496 4.288-2.016 6.464-7.36 6.464-16.032v-355.008c1.312 3.744 3.488 6.88 6.496 9.504l354.976 355.040z" />
<glyph unicode="&#xe933;" glyph-name="help3" d="M448 192.032h128v-128.032h-128v128.032zM512 832c-141.408 0-256-114.592-256-256h128c0 70.368 57.568 127.968 128 127.968 70.368 0 128-57.6 128-127.968 0-128-192-112.032-192-320h128c0 144 192 160 192 320 0 141.408-114.592 256-256 256z" />
<glyph unicode="&#xe934;" glyph-name="camera" d="M512 576c-70.624 0-128-57.376-128-128.128 0-70.496 57.376-127.872 128-127.872s128 57.376 128 127.872c0 70.752-57.376 128.128-128 128.128zM853.312 768h-135.264l-78.048 64h-256l-78.048-64h-135.264c-46.944 0-106.688-59.744-106.688-106.688v-512c0-46.88 59.744-85.312 106.688-85.312h682.624c46.944 0 106.688 38.432 106.688 85.312v512c0 46.944-59.744 106.688-106.688 106.688zM512 234.624c-117.76 0-213.312 95.616-213.312 213.376s95.552 213.376 213.312 213.376 213.312-95.616 213.312-213.376-95.552-213.376-213.312-213.376z" />
<glyph unicode="&#xe935;" glyph-name="pause2" d="M576 832h192v-768h-192v768zM256 832h192v-768h-192v768z" />
<glyph unicode="&#xe936;" glyph-name="play2" d="M213.376 0v896l597.248-448z" />
<glyph unicode="&#xe937;" glyph-name="stop" d="M64 896h896v-896h-896v896z" />
<glyph unicode="&#xe938;" glyph-name="move-bottom" d="M64 896v-256h512v256h-512zM512 704h-384v128h384v-128zM64 320h512v256h-512v-256zM128 512h384v-128h-384v128zM64 0h512v256h-512v-256zM128 192h384v-128h-384v128zM640 274.88l45.12 45.12 210.88-210.88v210.88h64v-320h-320v64h210.88l-210.88 210.88z" />
<glyph unicode="&#xe939;" glyph-name="move-left" d="M448 896v-256h512v256h-512zM896 704h-384v128h384v-128zM448 320h512v256h-512v-256zM512 512h384v-128h-384v128zM448 0h512v256h-512v-256zM512 192h384v-128h-384v128zM64 576h64v210.88l210.88-210.88 45.12 45.12-210.88 210.88h210.88v64h-320z" />
<glyph unicode="&#xe93a;" glyph-name="resize" d="M768 384l-47.712-46.72 110.688-113.28h-542.976v537.696l115.84-125.216 44.8 49.664-194.88 209.856-189.6-199.808 46.656-49.76 113.184 115.264v-601.696h606.976l-120.288-115.84 47.712-44.8 201.6 194.88z" />
<glyph unicode="&#xe93b;" glyph-name="color3" d="M512 896c-247.040 0-448-200.96-448-448s200.96-448 448-448c66.912 0 121.344 54.4 121.344 121.312 0 29.76-11.040 58.592-31.168 81.184-1.056 1.248-2.368 6.688-2.368 9.024 0 5.248 4.128 12.48 9.376 12.48h77.056c150.944 0 273.76 119.712 273.76 270.656 0 223.040-200.96 401.344-448 401.344zM686.24 288h-77.056c-36.224 0-65.344-36.32-65.344-72.48 0-16.512 6.56-35.328 16.512-46.656 10.432-11.744 16.992-28.704 16.992-45.792 0-36.128-29.184-66.208-65.344-66.208-216.48 0-392 175.136-392 391.552s175.52 391.808 392 391.808c216.512 0 392-148.896 392-341.472 0-120.192-97.568-210.752-217.76-210.752zM272.416 610.688c-53.664 0-97.312-43.68-97.312-97.376 0-53.664 43.648-97.312 97.312-97.312 26.048 0 50.496 10.112 68.864 28.48s28.48 42.848 28.448 68.864c0.032 53.664-43.648 97.344-97.312 97.344zM272.416 448c-36.128 0-65.312 29.184-65.312 65.312 0 36.192 29.184 65.376 65.312 65.376 36.192 0 65.344-29.184 65.344-65.376 0.032-36.128-29.152-65.312-65.344-65.312zM403.104 784.864c-53.664 0-97.344-43.616-97.344-97.28 0-53.696 43.648-97.344 97.344-97.344 53.664 0 97.312 43.648 97.312 97.344 0 53.664-43.648 97.28-97.312 97.28zM403.104 622.24c-36.192 0-65.344 29.184-65.344 65.344s29.184 65.28 65.344 65.28c36.128 0 65.312-29.12 65.312-65.28s-29.152-65.344-65.312-65.344zM718.24 687.584c0 53.664-43.68 97.28-97.376 97.28-53.632 0-97.28-43.616-97.28-97.28 0-53.696 43.648-97.344 97.28-97.344 53.696 0 97.376 43.68 97.376 97.344zM620.864 622.24c-36.128 0-65.28 29.184-65.28 65.344s29.152 65.28 65.28 65.28c36.16 0 65.376-29.12 65.376-65.28s-29.216-65.344-65.376-65.344zM751.584 610.688c-53.696 0-97.344-43.68-97.344-97.376 0-53.664 43.648-97.312 97.344-97.312 53.664 0 97.28 43.648 97.28 97.312 0 53.696-43.616 97.376-97.28 97.376zM751.584 448c-36.224 0-65.344 29.184-65.344 65.312 0 36.192 29.12 65.376 65.344 65.376 36.16 0 65.28-29.184 65.28-65.376 0-36.128-29.12-65.312-65.28-65.312z" />
<glyph unicode="&#xe93c;" glyph-name="row" d="M64 896v-896h896v896h-896zM896 64h-768v224h768v-224zM896 352h-768v192h768v-192zM896 608h-768v224h768v-224z" />
<glyph unicode="&#xe93d;" glyph-name="sum" d="M68.672 35.2c9.44-21.28 31.776-35.2 56.384-35.2h773.792c33.76 0 61.152 25.568 61.152 57.152v171.584c0 31.488-27.392 57.152-61.152 57.152s-61.056-25.664-61.056-57.152v-114.336h-565.888l279.744 263.68c22.432 21.088 23.776 54.848 3.136 77.408l-297.216 326.112h580.224v-38.112c0-31.52 27.328-57.184 61.056-57.184 33.824-0.032 61.152 25.632 61.152 57.152v95.296c0 31.68-27.328 57.248-61.152 57.248h-773.792c-23.872 0-45.472-12.928-55.424-33.248s-6.464-44.128 9.024-61.152l346.752-380.352-343.648-323.744c-17.44-16.448-22.528-40.992-13.088-62.304z" />
<glyph unicode="&#xe93e;" glyph-name="column2" d="M64 0h896v896h-896v-896zM896 832v-768h-224v768h224zM608 832v-768h-192v768h192zM352 832v-768h-224v768h224z" />
<glyph unicode="&#xe93f;" glyph-name="build-option" d="M781.472 474.368c1.504 12.256 2.624 24.608 2.624 37.632 0 13.056-1.12 25.376-2.624 37.632l80.992 63.392c7.328 5.76 9.152 16.128 4.544 24.576l-76.736 132.864c-4.576 8.48-15.008 11.488-23.392 8.48l-95.616-38.368c-19.968 15.328-41.44 28.032-64.864 37.6l-14.624 101.792c-1.184 9.152-9.28 16.032-18.816 16.032h-153.664c-9.568 0-17.664-6.88-18.848-16.128l-14.56-101.76c-23.392-9.568-44.864-22.656-64.928-37.632l-95.552 38.4c-8.768 3.392-18.848 0-23.392-8.512l-76.8-132.832c-5.056-8.48-2.72-18.784 4.608-24.608l80.992-63.36c-1.6-12.192-2.72-24.896-2.72-37.568s1.12-25.376 2.688-37.632l-80.992-63.328c-7.328-5.824-9.152-16.128-4.576-24.576l76.768-132.928c4.576-8.448 15.008-11.488 23.392-8.448l95.552 38.368c20.064-15.328 41.504-28.032 64.928-37.632l14.56-101.792c1.248-9.152 9.344-16.032 18.912-16.032h153.664c9.568 0 17.632 6.88 18.752 16.128l14.624 101.76c23.424 9.632 44.896 22.688 64.864 37.664l95.616-38.368c8.768-3.456 18.848 0 23.392 8.448l76.736 132.896c4.64 8.448 2.752 18.784-4.544 24.576l-80.96 63.264zM496.096 377.664c-74.048 0-134.336 60.224-134.336 134.336s60.288 134.336 134.336 134.336c74.144 0 134.4-60.224 134.4-134.336s-60.256-134.336-134.4-134.336zM272 64h64v-64h-64v64zM464 64h64v-64h-64v64zM656 64h64v-64h-64v64z" />
<glyph unicode="&#xe940;" glyph-name="explorer" d="M160 96c0 21.344 0 42.656 0 64zM104.672 385.856c-13.696 52.192-26.624 101.472-40.672 155.072 41.088 11.616 80.128 22.656 121.248 34.304-5.536 66.336-10.912 130.4-16.576 198.56 76.448 6.912 150.080 14.208 223.84 20 53.12 4.16 53.088 3.264 62.080 57.152 2.368 14.208 5.44 28.32 8.832 45.6 166.016-29.312 329.824-58.208 496.576-87.648-16.096-92.832-31.616-182.496-47.2-272 50.112-14.784 49.76-14.72 39.872-66.496-27.264-142.464-54.88-284.832-80.576-427.552-5.568-31.040-17.792-42.24-50.176-42.080-212.32 1.056-424.672 0.736-637.024-0.768-33.216-0.256-46.72 10.24-53.152 43.424-18.752 96.864-41.152 193.056-62.784 289.376-6.784 30.048-8.704 55.52 35.712 53.056zM484.224 865.6c-28.448-162.144-56.128-319.904-83.84-477.632 3.584-1.92 7.136-3.84 10.688-5.728 6.336 7.136 15.424 13.248 18.496 21.568 10.528 28.576 21.248 57.344 27.488 87.040 6.944 33.088 24.672 41.6 56.704 40.544 69.472-2.304 139.040-0.704 208.608-0.704 53.376 0 106.72 0 161.536 0 15.232 87.040 29.792 170.336 44.768 256.224-149.344 26.432-294.336 52.096-444.448 78.688zM197.28 750.208c11.008-123.392 21.664-242.912 32.384-363.136 49.44 0 96.064 0 142.784 0 22.56 128.224 44.64 253.664 67.392 383.104-81.664-6.752-159.008-13.12-242.56-19.968zM187.808 546.88c-32.832-8.64-61.536-16.16-91.456-24 13.376-48.768 25.504-93.056 37.472-136.736 23.2 0 43.456 0 67.648 0-4.608 53.696-8.96 105.152-13.664 160.736z" />
<glyph unicode="&#xe941;" glyph-name="build-now" d="M907.584 141.44l-288.736 288.736c-2.688 2.72-5.6 5.12-8.576 7.36l51.136 53.888c2.624 2.624 5.088 5.408 7.36 8.256 67.872-25.632 147.552-11.232 202.112 43.328 39.808 39.808 59.872 94.88 55.040 151.072-0.544 6.336-4.736 11.84-10.752 14.016s-12.704 0.704-17.216-3.776l-92.544-92.544-93.696 23.616-26.56 96.672 92.512 92.512c4.576 4.544 6.016 11.296 3.84 17.28s-7.68 10.176-14.048 10.72c-56.192 4.832-111.264-15.2-151.072-55.040-54.528-54.496-68.928-134.112-43.36-202.016-2.784-2.336-5.536-4.832-8.256-7.52l-75.296-72.288-138.208 138.176c-1.728 1.76-3.552 3.264-5.472 4.672 1.632 2.848 3.2 5.792 4.672 8.8 29.184-5.6 82.528 51.264 127.872 96.544l-132.032 132.096c-59.040-59.040-102.176-98.688-96.544-127.872-13.504-6.592-25.536-14.656-34.112-23.232l-18.592-18.592c-12.096-12.096-19.36-27.104-21.952-42.816-1.824-2.048-3.68-4.192-5.472-6.528l-6.944-8.704c-0.192-0.224-0.768-1.056-0.928-1.28l-6.304-8.832c-3.936-5.248-7.36-10.944-10.688-16.448-1.248-2.016-2.464-4.064-3.744-6.112-0.224-0.32-0.384-0.672-0.576-1.024l-2.784-5.248c-3.36-6.336-6.88-12.864-9.888-20.096l-0.512-1.152c-3.52-8.384-7.2-17.056-9.76-26.272l-1.216-4c-1.024-3.296-2.016-6.528-3.008-10.432l-2.56-12.704c-1.92-7.936-2.56-15.776-3.136-22.72l-0.384-4.576c-0.928-7.232-0.672-14.016-0.416-20 0.096-2.016 0.192-3.968 0.224-6.624 0.096-1.088 0.096-2.176 0.128-3.264 0.064-2.656 0.128-5.696 0.672-8.896l1.632-10.304c0.352-2.016 0.64-3.936 0.896-5.792 0.608-4.192 1.248-8.544 2.496-12.64l6.752-23.424c2.048-7.136 8.832-11.84 16.256-11.328 3.904 0.256 7.424 1.952 10.048 4.608 2.336 2.304 3.968 5.408 4.48 8.864l3.552 23.84c0.256 1.888 1.056 4.672 1.92 7.584 0.608 2.016 1.184 4.096 1.632 5.888l2.496 8.864c0.288 1.216 0.864 2.368 1.408 3.584 0.512 1.088 0.96 2.24 1.44 3.36 0.8 1.92 1.6 3.776 2.368 5.728 1.536 3.808 3.008 7.392 5.216 10.912 0.928 1.632 1.856 3.264 2.752 4.864 2.304 4.128 4.512 8.032 7.136 11.296 0.16 0.192 0.32 0.416 0.48 0.64l5.888 8.096c1.216 1.536 2.56 2.976 3.872 4.448 0.928 0.992 1.888 2.016 3.072 3.36 3.456 4.192 7.52 7.808 11.456 11.392l2.080 1.888c2.912 2.72 6.272 5.248 9.856 7.936 1.44 1.088 2.848 2.176 4.256 3.232 1.792 1.184 3.52 2.336 5.216 3.456 3.232 2.176 5.984 4.032 9.184 5.728l6.976 3.968 7.040 3.424c2.464 1.28 4.864 2.24 7.136 3.168 1.312 0.544 2.624 1.088 3.84 1.6 1.216 0.448 2.4 0.896 3.552 1.312 1.504 0.576 2.816 1.088 4.576 1.568l1.92 0.416c2.048-3.328 4.512-6.528 7.392-9.44l136.736-136.736-291.904-280.352c-0.096-0.096-0.224-0.224-0.32-0.352-36.32-36.32-42.24-89.504-5.92-125.856 36.32-36.32 86.112-27.008 122.432 9.312 0.16 0.16 0.32 0.288 0.448 0.48l257.504 271.136c1.504-1.792 3.008-3.552 4.672-5.248l288.704-288.736c32.352-32.384 84.832-32.384 117.184 0 32.32 32.32 32.32 84.768-0.032 117.12zM201.376 76.64c-13.376-13.376-35.072-13.376-48.448 0s-13.376 35.072 0 48.448 35.072 13.376 48.448 0 13.376-35.104 0-48.448z" />
<glyph unicode="&#xe942;" glyph-name="download" d="M885.344 515.744h-210.816v380.256h-316.224v-380.256h-210.848l368.928-368.928 368.96 368.928zM147.456 105.408v-105.408h737.888v105.408h-737.888z" />
<glyph unicode="&#xe943;" glyph-name="upload" d="M147.424 380.256h210.816v-380.256h316.256v380.256h210.816l-368.928 368.928-368.96-368.928zM885.312 790.592v105.408h-737.888v-105.408h737.888z" />
<glyph unicode="&#xe944;" glyph-name="chart-crosstab" d="M896 896h-576v-192h-192v-640h832v832h-64zM192 128v512h128v-512h-128zM576 448h128v-128h-128v128zM512 320h-128v128h128v-128zM576 512v128h128v-128h-128zM512 512h-128v128h128v-128zM384 128v128h128v-128h-128zM576 128v128h128v-128h-128zM896 128h-128v128h128v-128zM896 320h-128v128h128v-128zM896 512h-128v128h128v-128zM896 704h-512v128h512v-128z" />
<glyph unicode="&#xe945;" glyph-name="chart-map" d="M512 896c-173.376 0-313.6-140.224-313.6-313.6 0-235.2 313.6-582.4 313.6-582.4s313.6 347.2 313.6 582.4c0 173.376-140.224 313.6-313.6 313.6zM512 470.4c-61.824 0-112 50.176-112 112s50.176 112 112 112 112-50.176 112-112-50.176-112-112-112z" />
<glyph unicode="&#xe946;" glyph-name="chart-candlestick" d="M229.312 672.672h-33.888v-158.24h-31.104v-361.792h31.104v-152.64h33.888v152.64h31.136v361.792h-31.136zM421.504 896h-33.888v-155.424h-31.104v-361.824h31.104v-155.424h33.888v155.424h31.136v361.824h-31.136zM612.32 782.944h-33.952v-161.12h-31.040v-361.824h31.040v-149.76h33.952v149.76h31.104v361.824h-31.104zM828.576 719.36h-33.888v-159.744h-31.136v-361.792h31.136v-151.264h33.888v151.264h31.104v361.792h-31.104z" />
<glyph unicode="&#xe947;" glyph-name="chart-ohlc" d="M64 535.424h123.808v-466.24h-123.808v466.24zM311.68 826.816h123.808v-466.176h-123.808v466.176zM557.504 674.688h123.872v-466.176h-123.872v466.176zM836.192 595.744h123.808v-466.176h-123.808v466.176z" />
<glyph unicode="&#xe948;" glyph-name="chart-polar" d="M532.384 324.704v100.416h105.184c-10.656-51.424-53.344-91.584-105.184-100.416zM565.76 470.88h72.864c-2.944 19.136-10.176 36.864-20.64 52.256l-52.224-52.256zM486.624 325.28v99.84h-100.096c10.368-50.432 51.232-90.016 100.096-99.84zM532.384 896v-120.704c73.248-4.736 140.736-34.016 192.832-79.68l85.6 85.952c-74.464 66.944-171.648 109.44-278.432 114.432zM844.064 749.216l-86.048-86.048c45.12-52.32 73.856-119.040 78.304-192.288h123.616c-5.376 106.848-48.32 203.968-115.872 278.336zM385.376 470.88h101.248v105.984c-51.872-10.208-92.864-52.672-101.248-105.984zM532.384 729.408v-105.824c33.568-3.936 61.472-16.448 85.664-35.2l74.496 74.752c-43.744 37.472-99.2 61.632-160.16 66.272zM532.384 577.344v-74.080l52.416 52.512c-15.328 10.752-31.040 18.304-52.416 21.568zM187.744 470.88c9.76 161.92 137.184 292.224 298.88 304.224v120.768c-228.832-12.32-411.008-196.352-422.56-424.992h123.68zM486.624 127.040c-158.656 11.872-285.888 139.072-298.528 298.080h-124.032c11.552-228.672 193.728-412.64 422.56-424.928v126.848zM835.968 425.12c-12.672-160.032-141.856-287.84-303.584-298.272v-126.848c231.904 10.88 416 195.456 427.552 425.12h-123.968zM486.624 172.96v105.952c-76.288 10.688-135.232 70.528-146.592 146.208h-106.016c12.448-133.792 118.304-240.512 252.608-252.16zM233.536 470.88h105.76c8.992 78.56 71.040 141.344 147.328 152.352v105.92c-134.304-11.808-243.392-121.632-253.088-258.272zM789.984 425.12h-106.016c-11.488-76.672-72.288-137.088-151.584-146.592v-105.888c137.28 10.336 245.152 117.696 257.6 252.48zM650.72 555.872c18.304-24.192 30.432-53.312 34.048-84.992h105.76c-4.32 60.64-28 115.968-64.992 159.84l-74.816-74.848z" />
<glyph unicode="&#xe949;" glyph-name="chart-radar" d="M512 912l-471.008-342.208 179.904-553.792h582.176l179.904 553.792-470.976 342.208zM517.344 870.464l422.24-306.72-107.616-24.192c-3.424 8.288-11.552 14.048-21.088 14.048-1.984 0-3.808-0.416-5.664-0.768l-271.136 228.416c0.448 1.696 0.704 3.392 0.704 5.248 0 10.784-7.488 19.712-17.472 22.048v61.92zM671.552 179.872l-361.216-46.528c-0.8 1.6-1.728 3.040-2.816 4.352l60.576 93.184c2.24-0.672 4.672-1.184 7.232-1.184 12.608 0 22.784 10.112 22.784 22.72v0l190.496 47.2c3.968-6.688 11.168-11.328 19.584-11.328 3.296 0 6.368 0.8 9.12 2.016l60.928-93.728c-4.128-4.064-6.784-9.728-6.784-16.16 0-0.128 0.096-0.416 0.096-0.544zM374.784 499.616c-0.448 2.208-1.376 4.32-2.432 6.144l124.896 90.816c2.688-2.208 5.856-3.936 9.344-4.832v-121.728l-131.808 29.6zM503.936 459.648l-120.768-185.952c-1.376 0.512-2.752 0.896-4.192 1.184l-18.72 198.56c6.88 2.496 12.16 8.16 14.176 15.264l129.504-29.056zM489.216 613.952c0-3.168 0.608-6.016 1.76-8.672l-125.824-91.456c-3.616 2.368-7.968 3.808-12.608 3.808-7.424 0-13.952-3.552-18.080-9.056l-104.192 23.36c-0.256 1.056-0.608 2.080-0.928 3.040l273.664 230.624c1.184-0.544 2.368-0.896 3.616-1.184v-128.384c-9.984-2.496-17.408-11.424-17.408-22.080zM229.984 521.024l100.128-22.464c-0.256-1.184-0.416-2.496-0.416-3.68 0-11.552 8.672-21.152 19.84-22.592l18.656-198.304c-9.088-2.88-15.776-11.424-15.776-21.568 0-6.144 2.496-11.68 6.528-15.872l-60-92.288c-1.184 0.544-2.432 0.928-3.744 1.184l-72.576 364.032c3.552 2.912 6.176 6.976 7.36 11.552zM602.272 333.088l-81.6 125.664 129.248 28.896c1.568-4.704 4.672-8.928 8.736-11.68l-46.24-142.464c-1.376 0.288-2.816 0.416-4.288 0.416-2.048 0-3.936-0.288-5.856-0.832zM625.824 296.96c3.168 3.808 5.12 8.8 5.12 14.176 0 7.232-3.488 13.696-8.736 17.888l46.592 143.264c0.864-0.128 1.76-0.256 2.688-0.256 12.64 0 22.816 10.24 22.816 22.848 0 0.928-0.192 1.856-0.256 2.784l97.184 21.824c1.92-3.296 4.608-6.048 7.84-8.032l-100.256-308.672c-1.44 0.256-2.976 0.544-4.48 0.544-2.432 0-4.672-0.544-6.848-1.184l-61.664 94.816zM517.344 764.416c1.312 0.288 2.496 0.672 3.68 1.184l268.672-226.432c-0.992-2.464-1.632-5.376-1.632-8.416 0-0.256 0.128-0.672 0.128-1.024l-97.92-21.984c-4.128 5.952-11.040 9.888-18.784 9.888-4.672 0-8.992-1.44-12.608-3.808l-125.824 91.456c1.12 2.624 1.76 5.504 1.76 8.672 0 10.656-7.488 19.584-17.472 22.080v128.384zM517.344 591.744c3.552 0.896 6.688 2.624 9.376 4.832l124.896-90.816c-1.248-2.208-2.144-4.704-2.56-7.328l-131.744-29.568v122.88h0.032zM592.896 327.968c-4.608-4.192-7.552-10.080-7.552-16.8 0-0.544 0.128-0.896 0.128-1.312l-189.984-47.040c-0.928 1.856-2.112 3.52-3.424 4.96l119.936 184.672 80.896-124.48zM506.624 870.464v-61.92c-9.984-2.336-17.408-11.296-17.408-22.048 0-1.856 0.256-3.552 0.672-5.248l-275.904-232.512c-1.92 0.544-3.808 0.928-5.92 0.928-7.232 0-13.6-3.552-17.824-8.8l-104.928 23.52 421.312 306.080zM77.728 555.072l107.968-24.16c-0.256-1.344-0.448-2.656-0.448-4.096 0-10.784 7.552-19.712 17.536-22.048l72.608-363.904c-5.056-4.064-8.288-10.368-8.288-17.344 0-6.72 2.88-12.64 7.424-16.8l-34.016-52.448-162.784 500.8zM248.256 46.496l35.744 55.072c1.856-0.544 3.808-0.928 5.856-0.928 8.736 0 16.16 4.864 20.032 12.096l373.152 47.968c3.36-1.856 7.168-3.040 11.264-3.040 2.88 0 5.632 0.544 8.192 1.6l73.28-112.736h-527.52zM783.488 54.24l-72.192 111.168c3.552 3.968 5.792 9.216 5.792 15.008 0 2.88-0.608 5.536-1.504 8l104.416 321.6c7.488 3.168 12.736 10.368 13.472 18.912l112.48 25.248-162.464-499.936z" />
<glyph unicode="&#xe94a;" glyph-name="chart-scatter" d="M295.36 115.68c0-63.888-51.792-115.68-115.68-115.68s-115.68 51.792-115.68 115.68c0 63.888 51.792 115.68 115.68 115.68s115.68-51.792 115.68-115.68zM372.512 467.136c0-63.888-51.792-115.68-115.68-115.68s-115.68 51.792-115.68 115.68c0 63.888 51.792 115.68 115.68 115.68s115.68-51.792 115.68-115.68zM538.976 248.928c0-63.941-51.835-115.776-115.776-115.776s-115.776 51.835-115.776 115.776c0 63.941 51.835 115.776 115.776 115.776s115.776-51.835 115.776-115.776zM654.624 548.928c0-63.888-51.792-115.68-115.68-115.68s-115.68 51.792-115.68 115.68c0 63.888 51.792 115.68 115.68 115.68s115.68-51.792 115.68-115.68zM960 548.864c0-63.941-51.835-115.776-115.776-115.776s-115.776 51.835-115.776 115.776c0 63.941 51.835 115.776 115.776 115.776s115.776-51.835 115.776-115.776zM816.128 317.536c0-63.941-51.835-115.776-115.776-115.776s-115.776 51.835-115.776 115.776c0 63.941 51.835 115.776 115.776 115.776s115.776-51.835 115.776-115.776zM816.096 780.32c0-63.888-51.792-115.68-115.68-115.68s-115.68 51.792-115.68 115.68c0 63.888 51.792 115.68 115.68 115.68s115.68-51.792 115.68-115.68z" />
<glyph unicode="&#xe94b;" glyph-name="chart-waterfall" d="M64 640h128v-448h-128v448zM256 640h128v-192h-128v192zM832 896h128v-704h-128v704zM448 896h128v-448h-128v448zM640 768h128v-320h-128v320z" />
<glyph unicode="&#xe94c;" glyph-name="chart-area" d="M704.608 606.752l-224.608 65.536-255.616-193.6-160.576 52.544v-531.232h896.384v896l-255.584-289.248zM896.16 63.328h-768.256l0.448 256.768 256.096-129.024 160.064 257.088 256.128-96.032 96.032 95.872-0.512-384.672z" />
<glyph unicode="&#xe94d;" glyph-name="chart-bubble" d="M499.712 476.576c0 120.32-97.44 217.888-217.856 217.888-120.256-0.032-217.856-97.6-217.856-217.888s97.6-217.888 217.856-217.888c120.416 0 217.856 97.6 217.856 217.888zM769.024 628.352c0-79.971-64.829-144.8-144.8-144.8s-144.8 64.829-144.8 144.8c0 79.971 64.829 144.8 144.8 144.8s144.8-64.829 144.8-144.8zM732.864 342.848c0-69.968-56.72-126.688-126.688-126.688s-126.688 56.72-126.688 126.688c0 69.968 56.72 126.688 126.688 126.688s126.688-56.72 126.688-126.688zM959.968 448.832c0-65.019-52.709-117.728-117.728-117.728s-117.728 52.709-117.728 117.728c0 65.019 52.709 117.728 117.728 117.728s117.728-52.709 117.728-117.728zM425.408 275.552c-50.336 0-91.232-40.8-91.232-91.328 0-50.336 40.864-91.168 91.232-91.168 50.432 0 91.264 40.8 91.264 91.168 0 50.528-40.8 91.328-91.264 91.328zM491.232 708.96c0-29.956-24.284-54.24-54.24-54.24s-54.24 24.284-54.24 54.24c0 29.956 24.284 54.24 54.24 54.24s54.24-24.284 54.24-54.24z" />
<glyph unicode="&#xe94e;" glyph-name="chart-funnel" d="M748.832 504.448h-473.728l-72.672 143.712h619.136l-72.736-143.712zM723.136 453.696h-422.272l77.056-152.256h268.128l77.088 152.256zM620.384 250.688h-216.736l108.352-245.12 108.384 245.12zM64 890.432l112.736-191.552h670.528l112.736 191.552h-896z" />
<glyph unicode="&#xe94f;" glyph-name="chart-line" d="M960 610.944c0-44.8-36.672-81.504-81.44-81.504-7.328 0-14.24 0.864-20.736 2.88l-145.056-144.64c2.048-6.496 2.88-13.824 2.88-21.12 0-44.8-36.672-81.44-81.44-81.44-44.8 0-81.44 36.64-81.44 81.44 0 7.328 0.736 14.624 2.816 21.12l-103.872 103.872c-6.496-2.016-13.824-2.816-21.12-2.816s-14.624 0.8-21.184 2.816l-185.312-185.696c2.048-6.56 2.88-13.44 2.88-20.736 0-44.8-36.672-81.504-81.504-81.504-44.8 0-81.472 36.704-81.472 81.504 0 44.736 36.672 81.44 81.44 81.44 7.328 0 14.24-0.8 20.736-2.88l185.76 185.312c-2.048 6.496-2.88 13.824-2.88 21.184 0 44.8 36.672 81.44 81.504 81.44 44.736 0 81.44-36.64 81.44-81.44 0-7.36-0.8-14.688-2.88-21.184l103.872-103.808c6.56 2.016 13.888 2.816 21.184 2.816s14.624-0.8 21.12-2.816l144.64 144.992c-2.048 6.432-2.88 13.376-2.88 20.736 0 44.8 36.672 81.44 81.504 81.44 44.768 0.032 81.44-36.608 81.44-81.408z" />
<glyph unicode="&#xe950;" glyph-name="date" d="M860.48 800h-60.48v96h-96v-96h-384v96h-96v-96h-60.48c-55.2 0-99.008-37.152-99.008-86.368l-0.512-625.696c0-49.184 44.32-87.936 99.52-87.936h696.96c54.688 0 99.52 40.384 99.52 89.568v627.264c0 49.216-44.832 83.168-99.52 83.168zM864 96h-704v512h704v-512zM256 512h256v-224h-256v224z" />
<glyph unicode="&#xe951;" glyph-name="chart-pyramid" d="M512 619.2l154.016 71.168-154.016 205.632-154.016-205.632zM819.328 462.304l-123.104 164.352-184.224-85.088-184.224 85.088-123.104-164.352 307.328-154.976zM850.624 397.088l-338.624-170.784-338.624 170.784-105.856-141.248 444.48-255.84 444.48 255.84z" />
<glyph unicode="&#xe952;" glyph-name="chart-column" d="M63.936 896h415.136v-191.744h-415.136v191.744zM63.936 192.192h896.128v-192.192h-896.128v192.192zM63.936 576.288h640.384v-256.128h-640.384v256.128z" />
<glyph unicode="&#xe953;" glyph-name="unsubscribe" d="M512 896c-246.4 0-448-201.6-448-448s201.6-448 448-448 448 201.6 448 448-201.6 448-448 448zM153.6 448c0 80.672 27.36 155.136 72.8 215.232l500.8-500.8c-60.064-45.504-134.528-72.832-215.2-72.832-197.12 0-358.4 161.28-358.4 358.4zM797.6 232.768l-500.832 500.832c60.096 45.44 134.56 72.8 215.232 72.8 197.12 0 358.4-161.28 358.4-358.4 0-80.672-27.328-155.136-72.8-215.232z" />
<glyph unicode="&#xe954;" glyph-name="dimension" d="M957.056 128l-221.056 127.648v-95.648h-468.224l402.144 402.176 67.616-67.616 66.048 246.592-246.56-66.080 67.616-67.616-400.64-400.736v465.28h94.176l-127.648 221.056-127.648-221.056h97.12v-512c0-16 0-24 0-32s0-16 0-32h576v-95.648l221.056 127.648z" />
<glyph unicode="&#xe955;" glyph-name="measure" d="M320 64h-192v768h192v64h-256v-896h256zM704 896v-64h192v-768h-192v-64h256v896zM256 448h128v-256h-128v256zM640 704h128v-512h-128v512zM448 576h128v-384h-128v384z" />
<glyph unicode="&#xe956;" glyph-name="build-cab" d="M756.416 426.528c118.368-19.712 221.76 84.576 200.896 211.776-36.544-34.912-70.080-67.008-95.52-91.296-50.56 47.008-96.096 89.344-143.264 133.184 31.008 32.896 61.856 65.568 95.136 100.864-131.264 24.704-244-94.336-204.8-216.16 17.568-54.656 1.312-80.448-39.36-105.6-14.4-8.896-27.936-19.232-34.656-23.904-54.464 53.44-105.632 103.648-166.56 163.424 62.016 58.4 126.688 119.328 202.56 190.72-71.904 0-128.64 2.528-184.96-1.248-22.24-1.472-45.28-14.176-64.864-26.624-41.6-26.4-81.184-55.968-129.984-90.080 11.872-85.568-101.984-106.784-127.040-169.184 34.912-43.2 65.664-81.216 107.68-133.248 45.44 54.144 84.448 100.64 129.312 154.080 141.76-142.848 276-278.080 405.344-408.416 26.336 19.232 48.736 35.584 83.040 60.672-68.672 59.328-129.28 111.68-186.752 161.344 54.272 101.632 60.896 105.152 153.792 89.696zM359.744 296.128c-104.32-79.84-103.744-83.456-6.816-170.816 32.224-29.024 55.872-25.44 80.224 7.552 21.472 29.056 44.192 57.216 66.56 86.016-35.136 38.944-66.4 73.6-97.856 108.48-17.728-13.12-30.048-21.984-42.112-31.232z" />
<glyph unicode="&#xe957;" glyph-name="access-rights" d="M512 213.344c46.944 0 85.312 38.4 85.312 85.312 0 46.944-38.368 85.344-85.312 85.344s-85.312-38.4-85.312-85.344c0-46.912 38.368-85.312 85.312-85.312zM768 597.344h-42.688v85.312c0 117.76-95.552 213.344-213.312 213.344s-213.312-95.584-213.312-213.344h81.056c0 72.96 59.328 132.256 132.256 132.256s132.256-59.296 132.256-132.256v-85.312h-388.256c-46.944 0-85.312-38.432-85.312-85.344v-426.656c0-46.944 38.368-85.344 85.312-85.344h512c46.944 0 85.312 38.4 85.312 85.344v426.656c0 46.912-38.368 85.344-85.312 85.344zM768 85.344h-512v426.656h512v-426.656z" />
<glyph unicode="&#xe958;" glyph-name="copy" d="M640 896h-494.56c-44.768 0-81.44-36.672-81.44-81.472v-558.528h64v576h512v64zM878.56 704h-541.088c-44.8 0-81.472-36.672-81.472-81.472v-541.056c0-44.8 19.232-81.472 64.032-81.472h558.528c44.768 0 81.44 36.672 81.44 81.472v541.056c0 44.8-36.672 81.472-81.44 81.472zM896 64h-576v576h576v-576z" />
<glyph unicode="&#xe959;" glyph-name="cut" d="M316.672 342.304c-22.368 10.272-47.040 16.096-73.472 16.096-99.008 0-179.2-80.224-179.2-179.2s80.192-179.2 179.2-179.2c99.040 0 179.232 80.192 179.232 179.2 0 26.432-5.824 51.136-16.096 73.504l105.664 105.696 105.696-105.728c-10.304-22.368-16.096-47.040-16.096-73.472 0-99.008 80.192-179.2 179.232-179.2 99.008 0 179.2 80.192 179.2 179.2s-80.224 179.2-179.232 179.2c-26.432 0-51.136-5.856-73.504-16.096l-105.696 105.696 313.6 313.6v134.4h-44.8l-553.728-553.696zM332.8 179.2c0-49.248-39.904-89.6-89.632-89.6-49.696 0-89.6 40.352-89.6 89.6 0 49.28 39.904 89.632 89.6 89.632 49.728-0.032 89.632-40.352 89.632-89.632zM870.4 179.2c0-49.248-39.904-89.6-89.6-89.6-49.728 0-89.632 40.352-89.632 89.6 0 49.28 39.904 89.632 89.632 89.632 49.696-0.032 89.6-40.352 89.6-89.632zM534.4 448c0-12.512-9.92-22.4-22.4-22.4s-22.4 9.92-22.4 22.4 9.92 22.4 22.4 22.4 22.4-9.888 22.4-22.4zM108.8 761.6l268.8-268.8 89.6 89.6-313.6 313.6h-44.8v-134.4z" />
<glyph unicode="&#xe95a;" glyph-name="favorites" d="M960 548.576l-309.568 44.992-138.432 280.48-138.432-280.512-309.568-44.96 224-218.368-52.864-308.256 276.864 145.504 276.864-145.536-52.864 308.256 224 218.4zM512 236.672l-195.52-102.816 37.344 217.728-158.176 154.208 218.592 31.744 97.76 198.112 97.792-198.080 218.592-31.744-158.176-154.208 37.344-217.728-195.552 102.784z" />
<glyph unicode="&#xe95b;" glyph-name="refresh" d="M886.080 448c-20.736-193.152-111.296-315.264-292.192-356.736-130.080-29.792-242.304 2.592-337.152 104.48 38.016 42.976 73.088 92.256 118.016 124.256-109.536 0-214.752 0-278.752 0 0-96 0-181.952 0-280.544 32 32.928 68.736 65.728 108.992 100.704 163.36-149.664 342.048-188.128 538.496-77.216 142.080 80.256 209.568 224.128 216.512 385.056-27.232 0-48.928 0-73.92 0zM430.080 803.456c130.080 29.824 242.304-17.856 337.152-119.904-38.016-42.912-73.056-75.552-117.984-139.552 109.536 0 214.752 0 278.752 0 0 96 0 211.232 0 309.888-32-32.928-68.736-65.792-108.992-100.672-163.392 149.6-342.080 189.344-538.496 78.432-142.080-80.192-209.568-222.688-216.512-383.648 27.2 0 48.928 0 73.92 0 20.704 193.152 111.264 313.952 292.16 355.456z" />
<glyph unicode="&#xe95c;" glyph-name="schedule" d="M511.552 896c-247.296 0-447.552-200.704-447.552-448s200.256-448 447.552-448c247.744 0 448.448 200.704 448.448 448s-200.704 448-448.448 448zM512 89.6c-197.984 0-358.4 160.384-358.4 358.4s160.416 358.4 358.4 358.4 358.4-160.416 358.4-358.4-160.384-358.4-358.4-358.4zM534.4 672h-67.2v-268.8l235.2-141.152 33.6 55.136-201.6 119.616z" />
<glyph unicode="&#xe95d;" glyph-name="add2" d="M512 896c-247.392 0-448-200.608-448-448s200.608-448 448-448c247.424 0 448 200.608 448 448s-200.576 448-448 448zM512 64c-211.744 0-384 172.256-384 384s172.256 384 384 384 384-172.256 384-384-172.256-384-384-384zM544 704h-64v-224h-224v-64h224v-224h64v224h224v64h-224z" />
<glyph unicode="&#xe95e;" glyph-name="unlink" d="M300.391 211.625l-137.828-137.828c-3.594-3.25-7.75-4.859-12.406-4.859-4.297 0-8.453 1.609-12.391 4.859-3.219 3.594-4.828 7.719-4.828 12.359 0 4.688 1.609 8.813 4.828 12.406l137.859 137.828c3.578 3.25 7.719 4.828 12.375 4.828 4.688 0 8.797-1.578 12.391-4.828 3.219-3.594 4.828-7.703 4.828-12.359 0-4.687-1.61-8.812-4.828-12.406zM391.391 189.547v-172.297c0-5.031-1.625-9.156-4.859-12.391-3.219-3.203-7.359-4.859-12.375-4.859-5.031 0-9.156 1.656-12.391 4.859-3.219 3.234-4.828 7.359-4.828 12.391v172.297c0 5.031 1.609 9.156 4.828 12.391 3.234 3.25 7.359 4.844 12.391 4.844 5.016 0 9.156-1.594 12.375-4.844 3.234-3.235 4.859-7.36 4.859-12.391zM270.781 310.156c0-5.031-1.625-9.156-4.859-12.391-3.219-3.219-7.375-4.828-12.375-4.828h-172.328c-5 0-9.125 1.609-12.359 4.828-3.235 3.235-4.86 7.36-4.86 12.391 0 5.047 1.625 9.156 4.859 12.406 3.234 3.234 7.359 4.828 12.359 4.828h172.328c5 0 9.156-1.594 12.375-4.828 3.235-3.25 4.86-7.359 4.86-12.406zM951.375 241.219c0-43.047-15.25-79.5-45.766-109.297l-79.156-78.594c-29.797-29.797-66.219-44.703-109.297-44.703-43.438 0-80.063 15.25-109.844 45.797l-179.859 180.359c-7.531 7.531-15.078 17.578-22.609 30.156l128.688 9.688 146.984-147.531c9.719-9.688 21.922-14.641 36.641-14.813s26.906 4.563 36.594 14.281l79.156 78.625c10.078 10.031 15.078 22.047 15.078 36.031 0 14.375-5 26.563-15.078 36.641l-147.532 148.078 9.688 128.688c12.578-7.531 22.625-15.078 30.156-22.609l180.922-180.922c30.156-30.891 45.234-67.5 45.234-109.875v0zM619.156 631.078l-128.688-9.703-146.984 147.547c-10.078 10.062-22.265 15.078-36.64 15.078-13.984 0-26.203-4.844-36.594-14.531l-79.156-78.625c-10.078-10.047-15.078-22.063-15.078-36.063 0-14.359 5-26.563 15.078-36.625l147.531-147.547-9.688-129.203c-12.578 7.531-22.625 15.078-30.156 22.609l-180.922 180.907c-30.156 30.875-45.234 67.5-45.234 109.859 0 43.078 15.25 79.5 45.766 109.297l79.156 78.609c29.797 29.797 66.219 44.703 109.297 44.703 43.438 0 80.063-15.25 109.844-45.781l179.859-180.375c7.531-7.531 15.078-17.593 22.609-30.156v0zM960 585.859c0-5.031-1.625-9.156-4.859-12.391s-7.359-4.859-12.359-4.859h-172.329c-5.031 0-9.156 1.625-12.375 4.859-3.234 3.234-4.859 7.359-4.859 12.391 0 5.016 1.625 9.156 4.859 12.375 3.219 3.219 7.344 4.844 12.375 4.844h172.328c5 0 9.125-1.625 12.359-4.844s4.86-7.359 4.86-12.375zM667.063 878.781v-172.313c0-5.016-1.609-9.156-4.828-12.391-3.234-3.234-7.359-4.859-12.391-4.859-5.047 0-9.156 1.625-12.375 4.859-3.234 3.234-4.859 7.375-4.859 12.391v172.313c0 5.016 1.625 9.141 4.859 12.375 3.219 3.219 7.328 4.844 12.375 4.844 5.031 0 9.156-1.625 12.391-4.844 3.218-3.234 4.828-7.359 4.828-12.375zM886.234 797.469l-137.859-137.844c-3.953-3.234-8.078-4.844-12.375-4.844s-8.453 1.609-12.391 4.844c-3.25 3.578-4.828 7.703-4.828 12.375s1.578 8.797 4.828 12.391l137.828 137.844c3.594 3.219 7.719 4.844 12.406 4.844 4.641 0 8.797-1.625 12.391-4.844 3.219-3.594 4.828-7.719 4.828-12.375 0.001-4.673-1.609-8.813-4.828-12.391z" />
<glyph unicode="&#xe95f;" glyph-name="process" d="M436.96 681.088v-279.712l221.44-132.832 34.976 57.312-186.464 110.496v244.736zM854.016 361.184l105.984 188.032-69.216-2.432c-44.416 184-209.568 320.8-407.2 320.8-231.744 0-419.584-187.904-419.584-419.584s187.392-419.584 419.584-419.584c158.432 0 295.136 88.576 366.496 218.112-30.112 16.736-61.472 29.76-86.784 35.2-57.024-95.488-160.672-160.064-279.712-160.064-179.936 0-326.336 146.4-326.336 326.336s146.4 326.336 326.336 326.336c146.656 0 270.464-97.44 311.392-230.816l-61.472-2.144 120.512-180.192z" />
<glyph unicode="&#xe960;" glyph-name="right2" d="M843.136 779.136l116.864-116.896-545.408-545.376-350.592 350.592 116.864 116.896 233.728-233.76z" />
<glyph unicode="&#xe961;" glyph-name="edit-popup" d="M457.184 526.464l-393.184-393.152v-133.312h133.344l393.152 393.184zM693.632 496.256c13.824 13.888 13.824 36.256 0 50.112l-83.264 83.2c-13.888 13.92-36.256 13.92-50.112 0l-64.992-65.056 133.28-133.312 65.088 65.056zM860.448 896h-696.896c-55.232 0-99.552-44.8-99.552-99.552v-348.448h64v320h768v-704h-384v-64h348.448c54.752 0 99.552 44.8 99.552 99.552v696.896c0 54.752-44.352 99.552-99.552 99.552z" />
<glyph unicode="&#xe962;" glyph-name="list-popup" d="M860.448 896h-696.896c-55.232 0-99.552-44.8-99.552-99.552v-696.864c0-54.784 44.32-99.584 99.552-99.584h696.864c54.784 0 99.584 44.8 99.584 99.552v696.896c0 54.752-44.352 99.552-99.552 99.552zM896 64h-768v704h768v-704zM384 640h384v-64h-384v64zM256 640h64v-64h-64v64zM256 448h64v-64h-64v64zM256 256h64v-64h-64v64zM384 448h384v-64h-384v64zM384 256h384v-64h-384v64z" />
<glyph unicode="&#xe963;" glyph-name="cancel" d="M195.84 764.448c81.216 81.12 192.672 131.552 316.448 131.552 247.488 0 447.424-200.512 447.424-448s-199.936-448-447.424-448c-208.896 0-383.040 142.784-432.896 336h116.48c45.952-130.496 170.304-224 316.448-224 185.376 0 336 150.624 336 336s-150.624 336-336 336c-92.96 0-175.872-38.624-236.384-99.616l180.384-180.384h-392v392l131.52-131.552z" />
<glyph unicode="&#xe964;" glyph-name="attr2" d="M192 640h640v-128h-640v128zM192 384h640v-128h-640v128z" />
<glyph unicode="&#xe965;" glyph-name="hierarchy" d="M834.24 316.128l-190.272 329.568c17.632 25.696 28.032 56.768 28.032 90.304 0 88.352-71.648 160-160 160s-160-71.648-160-160c0-33.536 10.4-64.608 28.032-90.304l-190.272-329.568c-71.872-15.712-125.76-79.552-125.76-156.128 0-88.352 71.648-160 160-160s160 71.648 160 160c0 74.88-51.68 137.28-121.152 154.688l164.992 285.76c24.48-15.232 53.184-24.448 84.16-24.448s59.68 9.216 84.16 24.48l164.992-285.76c-69.472-17.44-121.152-79.84-121.152-154.72 0-88.352 71.648-160 160-160s160 71.648 160 160c0 76.576-53.888 140.416-125.76 156.128zM320 160c0-52.928-43.072-96-96-96s-96 43.072-96 96 43.072 96 96 96 96-43.072 96-96zM416 736c0 52.928 43.072 96 96 96s96-43.072 96-96-43.072-96-96-96-96 43.072-96 96zM800 64c-52.928 0-96 43.072-96 96s43.072 96 96 96 96-43.072 96-96-43.072-96-96-96z" />
<glyph unicode="&#xe966;" glyph-name="level" d="M512 320v-128h-192v384h192v320h-448v-320h192v-448h256v-128h448v320h-448zM896 64h-320v192h320v-192z" />
<glyph unicode="&#xe967;" glyph-name="leveln" d="M512 320v-128h-192v384h192v320h-448v-320h192v-448h256v-128h448v320h-448zM128 640v192h320v-192h-320z" />
<glyph unicode="&#xe968;" glyph-name="attr" d="M128 576h256v-64h-256v64zM192 448h192v-64h-192v64zM256 320h128v-64h-128v64zM896 306.784v204.096c0 109.408-38.496 223.328-205.376 223.328-68.736 0-133.12-19.2-178.208-48.512l23.104-65.408c38.304 24.832 90.56 40.608 141.28 40.608 111.648 0 123.232-81.184 123.232-126.336v-11.264c-192 1.12-327.072-71.072-327.072-203.008 0-78.944 56.928-167.104 167.392-167.104 77.824 0 137.056 38.816 167.456 70.816h3.36l7.872-64h90.208c-6.72 64-13.248 99.424-13.248 146.784zM800 359.808c0-10.176-0.096-21.44-3.424-31.584-15.808-46.24-59.808-91.328-130.848-91.328-50.72 0-95.232 30.432-95.232 94.72 0 106.016 133.504 125.216 229.504 122.944v-94.752z" />
<glyph unicode="&#xe969;" glyph-name="expand" d="M64 896v-896h896v896h-896zM896 64h-768v768h768v-768zM192 512h640v-128h-640v128z" />
<glyph unicode="&#xe96a;" glyph-name="collapse-2" d="M64 896v-896h896v896h-896zM896 64h-768v768h768v-768zM448 128h128v256h256v128h-256v256h-128v-256h-256v-128h256z" />
<glyph unicode="&#xe96b;" glyph-name="attr4" d="M384 512v-192h-256v192h256zM448 576h-384v-320h384v320zM896 512v-192h-256v192h256zM960 576h-384v-320h384v320z" />
<glyph unicode="&#xe96c;" glyph-name="attr3" d="M64 576h384v-320h-384v320zM576 576h384v-320h-384v320z" />
<glyph unicode="&#xe96d;" glyph-name="bag" d="M601.6 707.36h-179.2v94.336h179.2zM870.4 707.36h-179.2v94.336l-89.6 94.304h-179.2l-89.6-94.304v-94.304h-179.2c-49.728 0-89.6-41.984-89.6-94.336v-518.72c0-52.096 40.128-94.336 89.6-94.336h716.8c49.472 0 89.6 42.24 89.6 94.304v518.72c0 52.352-40.352 94.336-89.6 94.336z" />
<glyph unicode="&#xe96e;" glyph-name="collapse-3" d="M768 896h-512l256-256zM256 0h512l-256 256zM128 576h768v-64h-768v64zM128 384h768v-64h-768v64z" />
<glyph unicode="&#xe96f;" glyph-name="expand-3" d="M512 128l256 256h-512zM512 768l-256-256h512zM128 896h768v-64h-768v64zM128 64h768v-64h-768v64z" />
</font>
</defs>
</svg>
